<svg width="404" height="528" viewBox="0 0 404 528" fill="none" xmlns="http://www.w3.org/2000/svg">
<path d="M382.313 427.3H152.591V412.599H239.513C242.94 412.599 245.722 409.314 245.722 405.25C245.722 401.193 242.94 397.9 239.513 397.9H152.591V383.2H242.617C246.044 383.2 248.825 379.915 248.825 375.85C248.825 371.793 246.044 368.5 242.617 368.5H152.591V353.8H245.722C249.148 353.8 251.93 350.515 251.93 346.45C251.93 342.393 249.148 339.101 245.722 339.101H152.591V324.4H248.956C252.383 324.4 255.165 321.115 255.165 317.051C255.165 312.994 252.383 309.701 248.956 309.701H152.591V295.001H248.956C252.383 295.001 255.165 291.715 255.165 287.651C255.165 283.594 252.383 280.301 248.956 280.301H152.591V265.6H245.722C249.148 265.6 251.93 262.315 251.93 258.25C251.93 254.193 249.148 250.901 245.722 250.901H152.591V236.2H242.487C245.914 236.2 248.695 232.915 248.695 228.851C248.695 224.794 245.914 221.501 242.487 221.501H152.591V206.801H229.939C233.372 206.801 236.147 203.515 236.147 199.451C236.147 195.394 233.372 192.101 229.939 192.101H152.591V177.4H217.913C221.34 177.4 224.121 174.115 224.121 170.05C224.121 165.993 221.34 162.701 217.913 162.701H152.591V148H224.897C246.715 188.102 264.348 238.06 264.348 295.001C264.348 373.072 252.489 409.528 252.371 409.873C251.098 413.644 252.65 417.922 255.829 419.428C256.586 419.788 257.369 419.957 258.138 419.957C260.597 419.957 262.932 418.208 263.906 415.334C264.428 413.783 276.764 376.335 276.764 295C276.764 238.177 260.672 188.49 239.971 147.999H254.885C262.019 160.781 289.181 214.657 289.181 295C289.181 372.763 277.416 409.241 277.205 409.88C275.938 413.651 277.484 417.921 280.663 419.428C281.42 419.788 282.202 419.957 282.972 419.957C285.431 419.957 287.766 418.208 288.74 415.334C289.261 413.783 301.598 376.335 301.598 295C301.598 221.771 280.519 170.005 269.542 147.999H295.391C298.818 147.999 301.6 144.714 301.6 140.65C301.6 136.593 298.818 133.3 295.391 133.3H232.082C200.864 78.3662 163.028 43.1525 152.591 34.0087V8.34971C152.591 4.29286 149.81 1 146.383 1C142.956 1 140.174 4.29286 140.174 8.34971V133.3H121.548C118.121 133.3 115.34 136.593 115.34 140.65C115.34 144.714 118.121 147.999 121.548 147.999H140.174V427.3H22.2085C18.7815 427.3 16 430.593 16 434.649C16 438.715 18.7815 442 22.2085 442H382.313C385.74 442 388.521 438.715 388.521 434.65C388.522 430.593 385.74 427.3 382.313 427.3ZM152.591 52.7443C166.455 66.1362 192.799 94.0958 216.472 133.3H152.591V52.7443Z" fill="#FFA200" fill-opacity="0.4" stroke="#FFA200" stroke-opacity="0.4" stroke-width="1.5625"/>
<path d="M16.2 513.68C18.88 513.68 21.04 513.02 22.68 511.7C24.36 510.38 25.2 508.44 25.2 505.88C25.2 503.84 24.58 502.14 23.34 500.78C22.1 499.38 19.94 498.26 16.86 497.42L12.72 496.22C9.68 495.38 7.36 493.96 5.76 491.96C4.16 489.96 3.36 487.52 3.36 484.64C3.36 482.72 3.8 480.92 4.68 479.24C5.6 477.56 6.98 476.2 8.82 475.16C10.7 474.12 13.08 473.6 15.96 473.6C19.16 473.6 21.74 474.2 23.7 475.4C25.66 476.56 27.02 478.08 27.78 479.96C28.54 481.84 28.72 483.86 28.32 486.02L23.28 487.1C23.8 483.38 23.42 480.52 22.14 478.52C20.9 476.52 18.74 475.52 15.66 475.52C13.22 475.52 11.3 476.18 9.9 477.5C8.5 478.78 7.8 480.66 7.8 483.14C7.8 485.1 8.36 486.78 9.48 488.18C10.6 489.54 12.58 490.62 15.42 491.42L19.56 492.62C26.24 494.46 29.58 498.36 29.58 504.32C29.58 506.44 29.08 508.36 28.08 510.08C27.12 511.76 25.64 513.1 23.64 514.1C21.68 515.1 19.2 515.6 16.2 515.6C14.12 515.6 12.12 515.28 10.2 514.64C8.32 514 6.7 512.9 5.34 511.34C4.02 509.78 3.14 507.62 2.7 504.86L6.3 503.66C6.5 506.3 7.08 508.34 8.04 509.78C9 511.22 10.2 512.24 11.64 512.84C13.08 513.4 14.6 513.68 16.2 513.68ZM33.6511 474.2H65.5711V483.98H64.0111L62.2711 477.68C62.1511 477.2 62.0111 476.86 61.8511 476.66C61.7311 476.42 61.4711 476.28 61.0711 476.24C60.6711 476.16 59.9911 476.12 59.0311 476.12H52.2511V510.14C52.2511 511.54 52.3111 512.36 52.4311 512.6C52.5511 512.84 52.9311 513 53.5711 513.08L56.8711 513.44V515H42.4111V513.44L45.7111 513.08C46.3511 513 46.7311 512.84 46.8511 512.6C46.9711 512.36 47.0311 511.54 47.0311 510.14V476.12H40.1911C39.2711 476.12 38.5911 476.16 38.1511 476.24C37.7511 476.28 37.4711 476.42 37.3111 476.66C37.1911 476.86 37.0711 477.2 36.9511 477.68L35.2111 483.98H33.6511V474.2ZM74.6784 513.44V515H63.2784V513.44L66.5184 513.08C66.9584 513.04 67.2784 512.98 67.4784 512.9C67.6784 512.78 67.8584 512.54 68.0184 512.18C68.2184 511.78 68.4584 511.1 68.7384 510.14L80.3184 474.2H84.0984L95.7984 510.14C96.0784 511.1 96.2984 511.78 96.4584 512.18C96.6584 512.54 96.8584 512.78 97.0584 512.9C97.2584 512.98 97.5584 513.04 97.9584 513.08L101.258 513.44V515H86.6784V513.44L89.9784 513.08C90.6184 513 90.9584 512.84 90.9984 512.6C91.0784 512.32 90.8984 511.5 90.4584 510.14L87.9984 502.46H73.3584L70.8984 510.14C70.4584 511.5 70.2584 512.32 70.2984 512.6C70.3784 512.84 70.7384 513 71.3784 513.08L74.6784 513.44ZM73.9584 500.54H87.3984L80.6784 479.66L73.9584 500.54ZM103.954 475.82V474.2H120.274C124.194 474.2 127.134 475.12 129.094 476.96C131.054 478.76 132.034 481.08 132.034 483.92V485.54C132.034 487.62 131.414 489.4 130.174 490.88C128.934 492.36 127.194 493.4 124.954 494C127.754 494.48 129.934 495.54 131.494 497.18C133.054 498.82 133.834 500.88 133.834 503.36V504.98C133.834 507.9 132.814 510.3 130.774 512.18C128.774 514.06 125.774 515 121.774 515H103.954V513.44L107.254 513.08C107.894 513 108.274 512.84 108.394 512.6C108.514 512.36 108.574 511.54 108.574 510.14V479.06C108.574 477.66 108.514 476.84 108.394 476.6C108.274 476.36 107.894 476.2 107.254 476.12L103.954 475.82ZM120.274 476.12H113.794V493.28H120.274C124.434 493.28 126.514 490.86 126.514 486.02V483.56C126.514 478.6 124.434 476.12 120.274 476.12ZM121.774 495.2H113.794V513.08H121.774C126.134 513.08 128.314 510.5 128.314 505.34V502.88C128.314 500.4 127.754 498.5 126.634 497.18C125.554 495.86 123.934 495.2 121.774 495.2ZM165.962 505.1H167.582V515H140.282V513.44L143.582 513.08C144.222 513 144.602 512.84 144.722 512.6C144.842 512.36 144.902 511.54 144.902 510.14V479.06C144.902 477.66 144.842 476.84 144.722 476.6C144.602 476.36 144.222 476.2 143.582 476.12L140.282 475.82V474.2H154.742V475.82L151.442 476.12C150.802 476.2 150.422 476.36 150.302 476.6C150.182 476.84 150.122 477.66 150.122 479.06V513.08H160.982C161.942 513.08 162.622 513.06 163.022 513.02C163.422 512.94 163.682 512.8 163.802 512.6C163.962 512.36 164.102 512 164.222 511.52L165.962 505.1ZM198.341 505.22H199.901V515H171.161V513.44L174.461 513.08C175.101 513 175.481 512.84 175.601 512.6C175.721 512.36 175.781 511.54 175.781 510.14V479.06C175.781 477.66 175.721 476.84 175.601 476.6C175.481 476.36 175.101 476.2 174.461 476.12L171.161 475.82V474.2H199.121V483.98H197.621L195.881 477.68C195.761 477.2 195.621 476.86 195.461 476.66C195.341 476.42 195.081 476.28 194.681 476.24C194.281 476.16 193.601 476.12 192.641 476.12H181.001V493.46H189.041C190.001 493.46 190.681 493.44 191.081 493.4C191.481 493.32 191.741 493.18 191.861 492.98C192.021 492.74 192.161 492.38 192.281 491.9L193.421 487.4H194.981V501.44H193.421L192.281 496.94C192.161 496.46 192.021 496.12 191.861 495.92C191.741 495.68 191.481 495.54 191.081 495.5C190.681 495.42 190.001 495.38 189.041 495.38H181.001V513.08H193.361C194.321 513.08 195.001 513.06 195.401 513.02C195.801 512.94 196.061 512.8 196.181 512.6C196.341 512.36 196.481 512 196.601 511.52L198.341 505.22ZM205.966 475.82V474.2H222.286C226.206 474.2 229.146 475.12 231.106 476.96C233.066 478.76 234.046 481.08 234.046 483.92V485.54C234.046 487.62 233.426 489.4 232.186 490.88C230.946 492.36 229.206 493.4 226.966 494C229.766 494.48 231.946 495.54 233.506 497.18C235.066 498.82 235.846 500.88 235.846 503.36V504.98C235.846 507.9 234.826 510.3 232.786 512.18C230.786 514.06 227.786 515 223.786 515H205.966V513.44L209.266 513.08C209.906 513 210.286 512.84 210.406 512.6C210.526 512.36 210.586 511.54 210.586 510.14V479.06C210.586 477.66 210.526 476.84 210.406 476.6C210.286 476.36 209.906 476.2 209.266 476.12L205.966 475.82ZM222.286 476.12H215.806V493.28H222.286C226.446 493.28 228.526 490.86 228.526 486.02V483.56C228.526 478.6 226.446 476.12 222.286 476.12ZM223.786 495.2H215.806V513.08H223.786C228.146 513.08 230.326 510.5 230.326 505.34V502.88C230.326 500.4 229.766 498.5 228.646 497.18C227.566 495.86 225.946 495.2 223.786 495.2ZM242.294 475.82V474.2H258.974C262.894 474.2 265.894 475.14 267.974 477.02C270.094 478.86 271.154 481.32 271.154 484.4V486.26C271.154 488.7 270.474 490.78 269.114 492.5C267.794 494.18 265.894 495.34 263.414 495.98L271.094 510.14C271.614 511.1 271.994 511.78 272.234 512.18C272.474 512.54 272.694 512.78 272.894 512.9C273.134 512.98 273.454 513.04 273.854 513.08L276.554 513.44V515H267.494L258.014 496.52H252.134V510.14C252.134 511.54 252.194 512.36 252.314 512.6C252.434 512.84 252.814 513 253.454 513.08L256.754 513.44V515H242.294V513.44L245.594 513.08C246.234 513 246.614 512.84 246.734 512.6C246.854 512.36 246.914 511.54 246.914 510.14V479.06C246.914 477.66 246.854 476.84 246.734 476.6C246.614 476.36 246.234 476.2 245.594 476.12L242.294 475.82ZM258.974 476.12H252.134V494.6H258.974C261.054 494.6 262.674 493.94 263.834 492.62C265.034 491.26 265.634 489.22 265.634 486.5V484.16C265.634 481.44 265.034 479.42 263.834 478.1C262.674 476.78 261.054 476.12 258.974 476.12ZM279.794 475.82V474.2H294.254V475.82L290.954 476.12C290.314 476.2 289.934 476.36 289.814 476.6C289.694 476.84 289.634 477.66 289.634 479.06V510.14C289.634 511.54 289.694 512.36 289.814 512.6C289.934 512.84 290.314 513 290.954 513.08L294.254 513.44V515H279.794V513.44L283.094 513.08C283.734 513 284.114 512.84 284.234 512.6C284.354 512.36 284.414 511.54 284.414 510.14V479.06C284.414 477.66 284.354 476.84 284.234 476.6C284.114 476.36 283.734 476.2 283.094 476.12L279.794 475.82ZM317.169 515.6C312.089 515.6 308.209 513.9 305.529 510.5C302.889 507.1 301.569 502.54 301.569 496.82V492.32C301.569 488.56 302.129 485.28 303.249 482.48C304.409 479.68 306.109 477.5 308.349 475.94C310.589 474.38 313.329 473.6 316.569 473.6C319.569 473.6 322.049 474.2 324.009 475.4C325.969 476.56 327.389 478.1 328.269 480.02C329.149 481.9 329.429 483.96 329.109 486.2L323.949 487.46C324.389 483.62 323.949 480.68 322.629 478.64C321.309 476.56 319.289 475.52 316.569 475.52C313.529 475.52 311.209 476.6 309.609 478.76C308.049 480.92 307.269 484.44 307.269 489.32V499.82C307.269 504.74 308.109 508.28 309.789 510.44C311.469 512.6 313.969 513.68 317.289 513.68C318.609 513.68 319.869 513.46 321.069 513.02C322.269 512.54 323.289 511.74 324.129 510.62C324.969 509.5 325.489 507.94 325.689 505.94L329.409 506.9C328.529 510.1 326.969 512.36 324.729 513.68C322.529 514.96 320.009 515.6 317.169 515.6ZM335.165 475.76V474.2H349.625V475.76L346.325 476.12C345.685 476.16 345.305 476.32 345.185 476.6C345.065 476.84 345.005 477.66 345.005 479.06V496.7L360.005 478.7C361.005 477.54 361.505 476.84 361.505 476.6C361.545 476.32 361.225 476.16 360.545 476.12L357.485 475.76V474.2H368.885V475.76L365.825 476.12C365.425 476.16 365.105 476.24 364.865 476.36C364.625 476.44 364.345 476.66 364.025 477.02C363.745 477.34 363.265 477.9 362.585 478.7L353.225 489.98L364.625 510.14C365.145 511.06 365.525 511.72 365.765 512.12C366.045 512.52 366.325 512.78 366.605 512.9C366.885 512.98 367.265 513.04 367.745 513.08L370.625 513.44V515H361.265L349.745 494.18L345.005 499.82V510.14C345.005 511.54 345.065 512.36 345.185 512.6C345.305 512.84 345.685 513 346.325 513.08L349.625 513.44V515H335.165V513.44L338.465 513.08C339.105 513 339.485 512.84 339.605 512.6C339.725 512.36 339.785 511.54 339.785 510.14V479.06C339.785 477.66 339.725 476.84 339.605 476.6C339.485 476.32 339.105 476.16 338.465 476.12L335.165 475.76ZM387.098 513.68C389.778 513.68 391.938 513.02 393.578 511.7C395.258 510.38 396.098 508.44 396.098 505.88C396.098 503.84 395.478 502.14 394.238 500.78C392.998 499.38 390.838 498.26 387.758 497.42L383.618 496.22C380.578 495.38 378.258 493.96 376.658 491.96C375.058 489.96 374.258 487.52 374.258 484.64C374.258 482.72 374.698 480.92 375.578 479.24C376.498 477.56 377.878 476.2 379.718 475.16C381.598 474.12 383.978 473.6 386.858 473.6C390.058 473.6 392.638 474.2 394.598 475.4C396.558 476.56 397.918 478.08 398.678 479.96C399.438 481.84 399.618 483.86 399.218 486.02L394.178 487.1C394.698 483.38 394.318 480.52 393.038 478.52C391.798 476.52 389.638 475.52 386.558 475.52C384.118 475.52 382.198 476.18 380.798 477.5C379.398 478.78 378.698 480.66 378.698 483.14C378.698 485.1 379.258 486.78 380.378 488.18C381.498 489.54 383.478 490.62 386.318 491.42L390.458 492.62C397.138 494.46 400.478 498.36 400.478 504.32C400.478 506.44 399.978 508.36 398.978 510.08C398.018 511.76 396.538 513.1 394.538 514.1C392.578 515.1 390.098 515.6 387.098 515.6C385.018 515.6 383.018 515.28 381.098 514.64C379.218 514 377.598 512.9 376.238 511.34C374.918 509.78 374.038 507.62 373.598 504.86L377.198 503.66C377.398 506.3 377.978 508.34 378.938 509.78C379.898 511.22 381.098 512.24 382.538 512.84C383.978 513.4 385.498 513.68 387.098 513.68Z" fill="#AEAEAE"/>
</svg>
